# xmcd
#
# Track frame offsets:
#	150
#	11725
#	23050
#	35720
#	47953
#	59380
#	69265
#	81005
#	93105
#	103698
#	114180
#	126673
#	137165
#	148783
#	159935
#	170628
#	180803
#	191315
#	201828
#	212163
#	222893
#	233448
#	244408
#	259625
#
# Disc length: 3586 seconds
#
# Revision: 0
# Processed by: cddbd v1.5.1PL2 Copyright (c) Steve Scherf et al.
# Submitted via: dBpowerAMP V4.0
#
DISCID=4e0e0018
DTITLE=Fats Domino - Fats Domino - The Originals - Vol.  8
DYEAR=195
DGENRE=R&B
TTITLE0=Detroit City Blues
TTITLE1=Hide Away Blues
TTITLE2=She's My Baby
TTITLE3=New Baby (Brand New Baby)
TTITLE4=Little Bee
TTITLE5=Every Night About This Time (Version 1)
TTITLE6=Cheatin'
TTITLE7=Hey! Fat Man
TTITLE8=I'll Be Gone
TTITLE9=What's The Matter Baby
TTITLE10=I've Got Eyes For You
TTITLE11=Stay Away
TTITLE12=My Baby's Gone
TTITLE13=Rockin' Chair
TTITLE14=Sometimes I Wonder
TTITLE15=Right From Wrong
TTITLE16=Boogie Woogie Baby
TTITLE17=Don't Lie To Me
TTITLE18=Nobody Loves Me
TTITLE19=Dreaming
TTITLE20=No No Baby
TTITLE21=Fats Domino Blues
TTITLE22=9th Ward Blues
TTITLE23=How Long (Alternate Take)
EXTD=R&B
EXTT0=
EXTT1=
EXTT2=
EXTT3=
EXTT4=
EXTT5=
EXTT6=
EXTT7=
EXTT8=
EXTT9=
EXTT10=
EXTT11=
EXTT12=
EXTT13=
EXTT14=
EXTT15=
EXTT16=
EXTT17=
EXTT18=
EXTT19=
EXTT20=
EXTT21=
EXTT22=
EXTT23=
PLAYORDER=
